<?xml version="1.0" encoding="UTF-8"?>
<svg id="Layer_1" xmlns="http://www.w3.org/2000/svg" version="1.1" viewBox="0 0 175 40">
  <!-- Generator: Adobe Illustrator 29.6.1, SVG Export Plug-In . SVG Version: 2.1.1 Build 9)  -->
  <defs>
    <style>
      .st0 {
        fill: #f2f2f2;
      }

      .st1 {
        fill: #24292f;
        fill-rule: evenodd;
      }
    </style>
  </defs>
  <path class="st0" d="M20,0h135c11.05,0,20,8.95,20,20h0c0,11.05-8.95,20-20,20H20C8.95,40,0,31.05,0,20h0C0,8.95,8.95,0,20,0Z"/>
  <g>
    <path d="M48.73,22.57c0-.44-.15-.77-.46-1.01s-.86-.48-1.66-.72c-.8-.24-1.44-.51-1.91-.81-.91-.57-1.36-1.31-1.36-2.23,0-.8.33-1.46.98-1.98s1.5-.78,2.55-.78c.69,0,1.31.13,1.85.38s.97.62,1.28,1.09c.31.47.46,1,.46,1.57h-1.72c0-.52-.16-.93-.49-1.22-.33-.29-.79-.44-1.4-.44-.56,0-1,.12-1.32.36s-.47.58-.47,1.01c0,.36.17.67.51.91.34.24.89.48,1.67.71.77.23,1.4.49,1.87.79.47.29.81.63,1.03,1.01.22.38.33.83.33,1.34,0,.83-.32,1.49-.95,1.98-.64.49-1.5.73-2.59.73-.72,0-1.38-.13-1.99-.4-.6-.27-1.07-.63-1.41-1.1s-.5-1.02-.5-1.64h1.73c0,.57.19,1,.56,1.31s.91.46,1.61.46c.6,0,1.05-.12,1.36-.37.3-.24.45-.57.45-.97Z"/>
    <path d="M51.82,15.82c0-.25.08-.47.24-.64s.39-.25.69-.25.53.08.7.25.25.38.25.64-.08.46-.25.63c-.16.17-.4.25-.7.25s-.53-.08-.69-.25c-.16-.17-.24-.38-.24-.63ZM53.58,25.14h-1.66v-7.4h1.66v7.4Z"/>
    <path d="M55.1,21.38c0-1.15.27-2.06.81-2.75.54-.69,1.26-1.03,2.15-1.03.84,0,1.51.29,1.99.88l.08-.75h1.5v7.17c0,.97-.3,1.74-.91,2.3s-1.42.84-2.44.84c-.54,0-1.07-.11-1.59-.34-.52-.23-.91-.52-1.18-.89l.79-1c.51.61,1.14.91,1.89.91.55,0,.99-.15,1.31-.45.32-.3.48-.74.48-1.32v-.5c-.48.53-1.12.8-1.91.8-.87,0-1.57-.34-2.12-1.03s-.82-1.64-.82-2.86ZM56.75,21.53c0,.74.15,1.33.45,1.75.3.43.72.64,1.26.64.67,0,1.17-.29,1.49-.86v-3.25c-.31-.56-.81-.84-1.48-.84-.55,0-.97.22-1.27.65s-.45,1.07-.45,1.91Z"/>
    <path d="M64.87,17.74l.05.85c.55-.66,1.26-.99,2.15-.99,1.54,0,2.32.88,2.35,2.65v4.89h-1.66v-4.79c0-.47-.1-.82-.3-1.04-.2-.23-.53-.34-.99-.34-.67,0-1.17.3-1.5.91v5.26h-1.66v-7.4h1.57Z"/>
    <path d="M74.6,15.82c0-.25.08-.47.24-.64s.39-.25.69-.25.53.08.7.25.25.38.25.64-.08.46-.25.63c-.16.17-.4.25-.7.25s-.53-.08-.69-.25c-.16-.17-.24-.38-.24-.63ZM76.36,25.14h-1.66v-7.4h1.66v7.4Z"/>
    <path d="M79.71,17.74l.05.85c.55-.66,1.27-.99,2.15-.99,1.54,0,2.32.88,2.35,2.65v4.89h-1.66v-4.79c0-.47-.1-.82-.3-1.04-.2-.23-.54-.34-1-.34-.67,0-1.17.3-1.5.91v5.26h-1.66v-7.4h1.57Z"/>
    <path d="M95.94,22.85l1.18-5.11h1.62l-2.02,7.4h-1.37l-1.59-5.08-1.56,5.08h-1.37l-2.02-7.4h1.62l1.2,5.05,1.52-5.05h1.25l1.54,5.11Z"/>
    <path d="M99.85,15.82c0-.25.08-.47.24-.64.16-.17.39-.25.69-.25s.53.08.7.25.25.38.25.64-.08.46-.25.63c-.16.17-.4.25-.7.25s-.53-.08-.69-.25c-.16-.17-.24-.38-.24-.63ZM101.62,25.14h-1.66v-7.4h1.66v7.4Z"/>
    <path d="M105.51,15.94v1.8h1.31v1.23h-1.31v4.13c0,.28.06.49.17.61.11.13.31.19.6.19.19,0,.38-.02.58-.07v1.29c-.38.1-.74.16-1.09.16-1.28,0-1.91-.7-1.91-2.11v-4.19h-1.22v-1.23h1.22v-1.8h1.66Z"/>
    <path d="M109.72,18.55c.54-.63,1.23-.94,2.06-.94,1.58,0,2.38.9,2.4,2.7v4.83h-1.66v-4.77c0-.51-.11-.87-.33-1.08-.22-.21-.55-.32-.97-.32-.67,0-1.16.3-1.49.89v5.28h-1.66v-10.5h1.66v3.91Z"/>
    <path d="M127.13,23.84c-.36.47-.86.83-1.5,1.07s-1.36.36-2.17.36-1.57-.19-2.21-.57-1.14-.92-1.49-1.62c-.35-.7-.53-1.53-.54-2.46v-.78c0-1.5.36-2.68,1.08-3.52.72-.84,1.72-1.27,3.01-1.27,1.11,0,1.99.27,2.64.82.65.55,1.04,1.34,1.18,2.37h-1.7c-.19-1.2-.89-1.8-2.08-1.8-.77,0-1.36.28-1.77.84-.4.56-.61,1.38-.62,2.46v.76c0,1.07.23,1.91.68,2.5.45.59,1.08.89,1.89.89.88,0,1.51-.2,1.89-.6v-1.95h-2.05v-1.31h3.77v3.81Z"/>
    <path d="M128.87,15.82c0-.25.08-.47.24-.64.16-.17.39-.25.69-.25s.53.08.7.25.25.38.25.64-.08.46-.25.63c-.16.17-.4.25-.7.25s-.53-.08-.69-.25c-.16-.17-.24-.38-.24-.63ZM130.64,25.14h-1.66v-7.4h1.66v7.4Z"/>
    <path d="M134.52,15.94v1.8h1.31v1.23h-1.31v4.13c0,.28.06.49.17.61.11.13.31.19.6.19.19,0,.38-.02.58-.07v1.29c-.38.1-.74.16-1.09.16-1.28,0-1.91-.7-1.91-2.11v-4.19h-1.22v-1.23h1.22v-1.8h1.66Z"/>
    <path d="M145.16,25.14h-1.72v-4.42h-4.45v4.42h-1.73v-9.95h1.73v4.14h4.45v-4.14h1.72v9.95Z"/>
    <path d="M151.53,24.41c-.49.57-1.18.86-2.08.86-.8,0-1.41-.23-1.82-.7-.41-.47-.62-1.15-.62-2.04v-4.79h1.66v4.77c0,.94.39,1.41,1.17,1.41s1.35-.29,1.63-.87v-5.31h1.66v7.4h-1.57l-.04-.72Z"/>
    <path d="M161.31,21.51c0,1.15-.26,2.06-.77,2.74-.51.68-1.22,1.02-2.12,1.02s-1.54-.31-2.02-.94l-.08.8h-1.5v-10.5h1.66v3.81c.48-.57,1.12-.85,1.93-.85.9,0,1.61.33,2.13,1s.77,1.61.77,2.81v.1ZM159.65,21.37c0-.8-.14-1.4-.42-1.8s-.69-.6-1.23-.6c-.72,0-1.23.31-1.52.94v3.05c.3.64.81.96,1.53.96.52,0,.92-.19,1.2-.58s.43-.97.44-1.76v-.21Z"/>
  </g>
  <path class="st1" d="M21.97,10c-5.52,0-9.97,4.49-9.97,10.05,0,4.44,2.86,8.2,6.82,9.53.5.1.68-.22.68-.48,0-.23-.02-1.03-.02-1.86-2.77.6-3.35-1.2-3.35-1.2-.45-1.16-1.11-1.46-1.11-1.46-.91-.62.07-.62.07-.62,1.01.07,1.54,1.03,1.54,1.03.89,1.53,2.33,1.1,2.91.83.08-.65.35-1.1.63-1.35-2.21-.23-4.54-1.1-4.54-4.96,0-1.1.4-2,1.02-2.69-.1-.25-.45-1.28.1-2.66,0,0,.84-.27,2.74,1.03.81-.22,1.65-.33,2.49-.33.84,0,1.7.12,2.49.33,1.9-1.3,2.74-1.03,2.74-1.03.55,1.38.2,2.41.1,2.66.64.7,1.02,1.6,1.02,2.69,0,3.86-2.33,4.71-4.56,4.96.36.32.68.91.68,1.86,0,1.35-.02,2.43-.02,2.76,0,.27.18.58.68.48,3.96-1.33,6.82-5.09,6.82-9.53.02-5.56-4.46-10.05-9.96-10.05Z"/>
</svg>